<svg width="198" height="20" viewBox="0 0 198 20" fill="none" xmlns="http://www.w3.org/2000/svg">
<g id="Union">
<path fill-rule="evenodd" clip-rule="evenodd" d="M68.6975 10C68.6975 4.47715 73.2657 0 78.9009 0H80.6601C86.2954 0 90.8636 4.47715 90.8636 10C90.8636 15.5228 86.2954 20 80.6601 20H78.9009C73.2657 20 68.6975 15.5228 68.6975 10ZM78.9009 5.86207H80.6601C82.992 5.86207 84.8823 7.71468 84.8823 10C84.8823 12.2853 82.992 14.1379 80.6601 14.1379H78.9009C76.5691 14.1379 74.6788 12.2853 74.6788 10C74.6788 7.71468 76.5691 5.86207 78.9009 5.86207Z" fill="#E6E6F0"/>
<path fill-rule="evenodd" clip-rule="evenodd" d="M8.70813 1.03448L0 19.1379H7.38872L8.79609 16.2121H17.2403L18.6477 19.1379H26.0364L17.3283 1.03448H8.70813ZM13.0182 7.43469L10.9951 11.6405H15.0413L13.0182 7.43469Z" fill="#E6E6F0"/>
<path d="M66.5864 1.2069V6.55172H60.5656V19.2122H54.096V6.55172H48.1146V1.2069L66.5864 1.2069Z" fill="#E6E6F0"/>
<path d="M158.769 6.55172V1.2069L140.298 1.2069V6.55172H146.279V19.2122H152.749V6.55172H158.769Z" fill="#E6E6F0"/>
<path d="M93.3737 1.25014H99.7646L99.8087 1.2069L104.746 6.04619L109.684 1.2069L109.728 1.25014H116.157V19.2555H109.687V9.77179L104.746 14.6141L99.8433 9.80871V19.2555H93.3737V1.25014Z" fill="#E6E6F0"/>
<path d="M198 1.2069V8.44828H191.491V6.55172L185.347 6.55172L183.162 10.2601L185.345 13.9655H191.491V12.069H198V19.3103H180.936V19.3046L175.658 10.3457L175.809 10.2603L175.658 10.1748L180.936 1.21597V1.2069L198 1.2069Z" fill="#E6E6F0"/>
<path fill-rule="evenodd" clip-rule="evenodd" d="M117.076 19.1379L125.784 1.03448H134.404L143.112 19.1379H135.724L134.316 16.2121H125.872L124.465 19.1379H117.076ZM130.094 7.43469L132.117 11.6405H128.071L130.094 7.43469Z" fill="#E6E6F0"/>
<path d="M175.658 6.55172V1.2069L161.232 1.2069V6.55172H165.103V13.9655H161.232V19.3103H175.658V13.9655H171.572V6.55172H175.658Z" fill="#E6E6F0"/>
<path d="M25.2448 1.2069V11.3793C25.2448 16.1404 29.1829 20 34.0409 20H35.976C40.834 20 44.7721 16.1404 44.7721 11.3793V1.2069H38.7908V11.3793C38.7908 12.9029 37.5306 14.1379 35.976 14.1379H34.0409C32.4863 14.1379 31.2261 12.9029 31.2261 11.3793V1.2069H25.2448Z" fill="#E6E6F0"/>
</g>
</svg>
